<svg width="22" height="23" viewBox="0 0 22 23" fill="none" xmlns="http://www.w3.org/2000/svg">
<path d="M5 12.4687H1C0.734784 12.4687 0.48043 12.5778 0.292893 12.7721C0.105357 12.9663 0 13.2297 0 13.5043V21.7891C0 22.0637 0.105357 22.3271 0.292893 22.5213C0.48043 22.7156 0.734784 22.8247 1 22.8247H5C5.26522 22.8247 5.51957 22.7156 5.70711 22.5213C5.89464 22.3271 6 22.0637 6 21.7891V13.5043C6 13.2297 5.89464 12.9663 5.70711 12.7721C5.51957 12.5778 5.26522 12.4687 5 12.4687ZM4 20.7535H2V14.5399H4V20.7535ZM21 8.32637H17C16.7348 8.32637 16.4804 8.43547 16.2929 8.62968C16.1054 8.8239 16 9.0873 16 9.36196V21.7891C16 22.0637 16.1054 22.3271 16.2929 22.5213C16.4804 22.7156 16.7348 22.8247 17 22.8247H21C21.2652 22.8247 21.5196 22.7156 21.7071 22.5213C21.8946 22.3271 22 22.0637 22 21.7891V9.36196C22 9.0873 21.8946 8.8239 21.7071 8.62968C21.5196 8.43547 21.2652 8.32637 21 8.32637ZM20 20.7535H18V10.3976H20V20.7535ZM13 0.041626H9C8.73478 0.041626 8.48043 0.150733 8.29289 0.344944C8.10536 0.539155 8 0.802562 8 1.07722V21.7891C8 22.0637 8.10536 22.3271 8.29289 22.5213C8.48043 22.7156 8.73478 22.8247 9 22.8247H13C13.2652 22.8247 13.5196 22.7156 13.7071 22.5213C13.8946 22.3271 14 22.0637 14 21.7891V1.07722C14 0.802562 13.8946 0.539155 13.7071 0.344944C13.5196 0.150733 13.2652 0.041626 13 0.041626ZM12 20.7535H10V2.11281H12V20.7535Z" fill="#F4F8FF"/>
</svg>
